<svg width="24" height="24" viewBox="0 0 24 24" fill="none" xmlns="http://www.w3.org/2000/svg">
  <path d="M4.15663 5.25V16.951L4.16327 17.0774C4.22474 17.6575 4.70603 18.0926 5.31326 18.0926C7.19277 18.0926 8.20482 18.0926 8.92771 18.2353C9.57832 18.4492 10.1566 18.7347 11.3855 19.4481C11.747 19.6622 12.253 19.6622 12.6145 19.4481C13.7711 18.6633 14.3494 18.3779 15.0723 18.2353C15.7048 18.1103 16.5588 18.0948 18.0215 18.0928L18.6867 18.0926C19.3373 18.0926 19.8434 17.5931 19.8434 16.951V5.25H20.6386C20.8555 5.25 21 5.3927 21 5.60673V18.806C21 19.0201 20.8555 19.1628 20.6386 19.1628H18.4242C16.6889 19.1635 15.7484 19.1754 15 19.3768C14.1325 19.5908 13.4819 20.019 12.253 20.9465C12.1807 21.0178 11.9639 21.0178 11.8193 20.9465C10.5181 20.019 9.86748 19.5908 9.07229 19.3768C8.27711 19.1628 7.19277 19.1628 5.31326 19.1628H3.36145L3.27314 19.1542C3.10622 19.1205 3 18.9895 3 18.806V5.60673L3.00864 5.51957C3.04278 5.35483 3.17556 5.25 3.36145 5.25H4.15663ZM5.59439 3C7.3852 3 8.41837 3 9.38266 3.21799C10.1403 3.43599 10.8291 3.87197 11.6556 4.52595V13.9723C11.6556 14.1903 11.7934 14.3356 12 14.3356C12.2066 14.3356 12.3444 14.1903 12.3444 13.9723V4.52595C13.2398 3.87197 13.8597 3.43599 14.6173 3.21799C15.4531 3.02907 16.3406 3.00388 17.7281 3.00052L18.4056 3L18.4898 3.00869C18.6488 3.04301 18.75 3.17647 18.75 3.36332V16.8062L18.7418 16.8949C18.7092 17.0627 18.5827 17.1696 18.4056 17.1696C16.6148 17.1696 15.5816 17.2422 14.824 17.3875C13.9974 17.6056 13.3776 17.8961 12.2066 18.6955C12.0689 18.7681 11.9311 18.7681 11.7934 18.6955C10.6224 17.8961 9.93368 17.5328 9.17602 17.3875C8.51939 17.1986 7.65582 17.1734 6.27145 17.1701L5.59439 17.1696C5.38775 17.1696 5.25 17.0242 5.25 16.8062V3.36332C5.25 3.14533 5.38775 3 5.59439 3Z" fill="white"/>
</svg>
