<svg width="15" height="16" viewBox="0 0 15 16" fill="none"
  xmlns="http://www.w3.org/2000/svg">
  <path fill-rule="evenodd" clip-rule="evenodd" d="M8 7C8 6.72386 8.22386 6.5 8.5 6.5H14.5C14.7761 6.5 15 6.72386 15 7C15 7.27614 14.7761 7.5 14.5 7.5H8.5C8.22386 7.5 8 7.27614 8 7ZM8 10C8 9.72386 8.22386 9.5 8.5 9.5H14.5C14.7761 9.5 15 9.72386 15 10C15 10.2761 14.7761 10.5 14.5 10.5H8.5C8.22386 10.5 8 10.2761 8 10ZM8 13C8 12.7239 8.22386 12.5 8.5 12.5H14.5C14.7761 12.5 15 12.7239 15 13C15 13.2761 14.7761 13.5 14.5 13.5H8.5C8.22386 13.5 8 13.2761 8 13Z" fill="currentColor"/>
  <path d="M1 4.5H7M4 7.5V1.5" stroke="currentColor" stroke-linecap="round"/>
</svg>
