<svg width="275" height="39" viewBox="0 0 275 39" fill="none" xmlns="http://www.w3.org/2000/svg">
<path opacity="0.7" d="M11.9656 18H8L22 34V32L19.6578 23.8022C18.6765 20.3678 15.5374 18 11.9656 18Z" fill="#F2994A"/>
<path opacity="0.7" d="M32.0344 18H36L22 34V32L24.3422 23.8022C25.3235 20.3678 28.4626 18 32.0344 18Z" fill="#F2994A"/>
<path d="M36.1169 18H44C36.0382 23.2509 28.2176 26.8834 22 34V32L29.6071 21.3501C31.1088 19.2477 33.5333 18 36.1169 18Z" fill="#F2994A"/>
<path d="M7.24039 18H0C7.96176 23.2509 15.7824 26.8834 22 34V32L11.7959 20.0953C10.656 18.7654 8.99194 18 7.24039 18Z" fill="#F2994A"/>
<path d="M17.0982 14.4064C16.7209 14.2668 16.7209 13.7332 17.0982 13.5936L18.8846 12.9326C19.8334 12.5815 20.5815 11.8334 20.9326 10.8846L21.5936 9.09818C21.7332 8.72095 22.2668 8.72095 22.4064 9.09818L23.0674 10.8846C23.4185 11.8334 24.1666 12.5815 25.1154 12.9326L26.9018 13.5936C27.2791 13.7332 27.2791 14.2668 26.9018 14.4064L25.1154 15.0674C24.1666 15.4185 23.4185 16.1666 23.0674 17.1154L22.4064 18.9018C22.2668 19.2791 21.7332 19.2791 21.5936 18.9018L20.9326 17.1154C20.5815 16.1666 19.8334 15.4185 18.8846 15.0674L17.0982 14.4064Z" fill="white"/>
<path d="M54 14.56C54 14.0267 54.1867 13.5733 54.56 13.2C54.9333 12.8267 55.3867 12.64 55.92 12.64H79.88C80.6267 12.64 81.32 12.7867 81.96 13.08C82.6267 13.3467 83.2 13.72 83.68 14.2C84.1867 14.68 84.5733 15.24 84.84 15.88C85.1333 16.52 85.28 17.2133 85.28 17.96C85.28 18.7067 85.1333 19.4 84.84 20.04C84.5733 20.68 84.1867 21.24 83.68 21.72C83.2 22.2 82.6267 22.5867 81.96 22.88C81.32 23.1467 80.6267 23.28 79.88 23.28H59.08C58.7333 23.3333 58.44 23.4933 58.2 23.76C57.96 24.0267 57.84 24.36 57.84 24.76V28.16C57.84 28.6933 57.64 29.1467 57.24 29.52C56.8667 29.8933 56.4267 30.08 55.92 30.08C55.3867 30.08 54.9333 29.8933 54.56 29.52C54.1867 29.1467 54 28.6933 54 28.16V24.32C54 23.6533 54.12 23.0267 54.36 22.44C54.6 21.8267 54.9333 21.3067 55.36 20.88C55.8133 20.4267 56.32 20.08 56.88 19.84C57.4667 19.5733 58.1067 19.44 58.8 19.44H80.04C80.44 19.44 80.7867 19.3067 81.08 19.04C81.4 18.7467 81.56 18.3867 81.56 17.96C81.56 17.56 81.4 17.2133 81.08 16.92C80.7867 16.6267 80.44 16.48 80.04 16.48H55.92C55.3867 16.48 54.9333 16.2933 54.56 15.92C54.1867 15.5467 54 15.0933 54 14.56ZM120.593 28.16C120.593 28.6933 120.407 29.1467 120.033 29.52C119.66 29.8933 119.207 30.08 118.673 30.08C118.14 30.08 117.687 29.8933 117.313 29.52C116.94 29.1467 116.753 28.6933 116.753 28.16V23.28H93.1134V28.16C93.1134 28.6933 92.9268 29.1467 92.5534 29.52C92.1801 29.8933 91.7268 30.08 91.1934 30.08C90.6601 30.08 90.2068 29.8933 89.8334 29.52C89.4601 29.1467 89.2734 28.6933 89.2734 28.16V14.56C89.2734 14.0267 89.4601 13.5733 89.8334 13.2C90.2068 12.8267 90.6601 12.64 91.1934 12.64C91.7268 12.64 92.1801 12.8267 92.5534 13.2C92.9268 13.5733 93.1134 14.0267 93.1134 14.56V19.44H116.753V14.56C116.753 14.0267 116.94 13.5733 117.313 13.2C117.687 12.8267 118.14 12.64 118.673 12.64C119.207 12.64 119.66 12.8267 120.033 13.2C120.407 13.5733 120.593 14.0267 120.593 14.56V28.16ZM148.946 26.24C149.853 26.24 150.599 26.08 151.186 25.76C151.773 25.4133 152.226 25 152.546 24.52C152.893 24.04 153.119 23.52 153.226 22.96C153.359 22.3733 153.426 21.84 153.426 21.36C153.426 20.88 153.359 20.36 153.226 19.8C153.119 19.2133 152.893 18.68 152.546 18.2C152.226 17.72 151.773 17.32 151.186 17C150.599 16.6533 149.853 16.48 148.946 16.48H132.786C131.853 16.48 131.093 16.6533 130.506 17C129.946 17.32 129.493 17.72 129.146 18.2C128.826 18.68 128.599 19.2133 128.466 19.8C128.359 20.36 128.306 20.88 128.306 21.36C128.306 21.84 128.359 22.3733 128.466 22.96C128.599 23.52 128.826 24.04 129.146 24.52C129.493 25 129.946 25.4133 130.506 25.76C131.093 26.08 131.853 26.24 132.786 26.24H148.946ZM157.146 21.36C157.146 22.3733 156.973 23.4 156.626 24.44C156.306 25.4533 155.826 26.3867 155.186 27.24C154.546 28.0667 153.773 28.7467 152.866 29.28C151.959 29.8133 150.933 30.08 149.786 30.08H131.546C130.453 30.0267 129.479 29.7333 128.626 29.2C127.773 28.64 127.039 27.9467 126.426 27.12C125.839 26.2933 125.386 25.3733 125.066 24.36C124.746 23.3467 124.586 22.3467 124.586 21.36C124.586 20.3467 124.746 19.3333 125.066 18.32C125.413 17.28 125.906 16.3467 126.546 15.52C127.186 14.6667 127.959 13.9733 128.866 13.44C129.773 12.9067 130.799 12.64 131.946 12.64H150.186C151.279 12.6933 152.253 13 153.106 13.56C153.959 14.0933 154.679 14.7733 155.266 15.6C155.879 16.4267 156.346 17.3467 156.666 18.36C156.986 19.3733 157.146 20.3733 157.146 21.36ZM161.148 14.56C161.148 14.0267 161.335 13.5733 161.708 13.2C162.082 12.8267 162.535 12.64 163.068 12.64H191.428C191.962 12.64 192.415 12.8267 192.788 13.2C193.162 13.5733 193.348 14.0267 193.348 14.56C193.348 15.0933 193.162 15.5467 192.788 15.92C192.415 16.2933 191.962 16.48 191.428 16.48H163.068C162.535 16.48 162.082 16.2933 161.708 15.92C161.335 15.5467 161.148 15.0933 161.148 14.56ZM166.028 30.08C165.442 30.08 164.855 29.96 164.268 29.72C163.682 29.4533 163.162 29.0933 162.708 28.64C162.255 28.1867 161.882 27.64 161.588 27C161.295 26.36 161.148 25.64 161.148 24.84V21.24C161.148 20.52 161.348 20.04 161.748 19.8C162.175 19.56 162.828 19.44 163.708 19.44H190.548C191.082 19.44 191.535 19.6267 191.908 20C192.282 20.3733 192.468 20.8267 192.468 21.36C192.468 21.8933 192.282 22.3467 191.908 22.72C191.535 23.0933 191.082 23.28 190.548 23.28H164.988V25.24C164.988 25.5067 165.095 25.7467 165.308 25.96C165.548 26.1467 165.855 26.24 166.228 26.24H191.428C191.962 26.24 192.415 26.4267 192.788 26.8C193.162 27.1733 193.348 27.6267 193.348 28.16C193.348 28.6933 193.162 29.1467 192.788 29.52C192.415 29.8933 191.962 30.08 191.428 30.08H166.028ZM224.599 14.56C224.599 14.0267 224.786 13.5733 225.159 13.2C225.533 12.8267 225.986 12.64 226.519 12.64C227.053 12.64 227.506 12.8267 227.879 13.2C228.253 13.5733 228.439 14.0267 228.439 14.56V26.2C228.439 27.2933 228.066 28.2133 227.319 28.96C226.599 29.7067 225.693 30.08 224.599 30.08C224.226 30.08 223.853 30.0267 223.479 29.92C223.133 29.8133 222.813 29.6667 222.519 29.48L204.199 18.28C203.693 17.9867 203.266 17.76 202.919 17.6C202.599 17.4133 202.333 17.32 202.119 17.32C201.719 17.32 201.466 17.5733 201.359 18.08C201.253 18.5867 201.199 19.32 201.199 20.28V28.16C201.199 28.6933 201.013 29.1467 200.639 29.52C200.266 29.8933 199.813 30.08 199.279 30.08C198.746 30.08 198.293 29.8933 197.919 29.52C197.546 29.1467 197.359 28.6933 197.359 28.16V16.52C197.359 15.4267 197.719 14.5067 198.439 13.76C199.186 13.0133 200.106 12.64 201.199 12.64C201.573 12.64 201.933 12.6933 202.279 12.8C202.653 12.9067 202.986 13.0533 203.279 13.24L221.599 24.44C222.106 24.7333 222.519 24.9733 222.839 25.16C223.186 25.32 223.466 25.4 223.679 25.4C224.079 25.4 224.333 25.1467 224.439 24.64C224.546 24.1333 224.599 23.4 224.599 22.44V14.56ZM236.278 28.16C236.278 28.6933 236.091 29.1467 235.717 29.52C235.344 29.8933 234.891 30.08 234.358 30.08C233.824 30.08 233.371 29.8933 232.998 29.52C232.624 29.1467 232.438 28.6933 232.438 28.16V14.56C232.438 14.0267 232.624 13.5733 232.998 13.2C233.371 12.8267 233.824 12.64 234.358 12.64C234.891 12.64 235.344 12.8267 235.717 13.2C236.091 13.5733 236.278 14.0267 236.278 14.56V28.16ZM271.689 16.08C270.329 17.28 269.076 18.32 267.929 19.2C266.782 20.0533 265.702 20.7733 264.689 21.36C265.702 21.9467 266.769 22.68 267.889 23.56C269.009 24.4133 270.276 25.44 271.689 26.64C271.902 26.8267 272.076 27.0533 272.209 27.32C272.369 27.5867 272.449 27.8667 272.449 28.16C272.449 28.6933 272.262 29.1467 271.889 29.52C271.516 29.8933 271.062 30.08 270.529 30.08C270.076 30.08 269.622 29.8933 269.169 29.52C267.462 28.0267 266.022 26.8667 264.849 26.04C263.702 25.1867 262.662 24.56 261.729 24.16C260.822 23.76 259.956 23.52 259.129 23.44C258.302 23.3333 257.369 23.28 256.329 23.28H255.449C254.569 23.3067 253.756 23.3867 253.009 23.52C252.262 23.6267 251.449 23.8933 250.569 24.32C249.716 24.7467 248.729 25.3733 247.609 26.2C246.516 27.0267 245.169 28.1333 243.569 29.52C243.356 29.68 243.142 29.8133 242.929 29.92C242.716 30.0267 242.476 30.08 242.209 30.08C241.676 30.08 241.222 29.8933 240.849 29.52C240.476 29.1467 240.289 28.6933 240.289 28.16C240.289 27.8667 240.356 27.5867 240.489 27.32C240.649 27.0533 240.836 26.8267 241.049 26.64C242.409 25.44 243.662 24.4133 244.809 23.56C245.956 22.7067 247.036 21.9867 248.049 21.4C247.036 20.8133 245.956 20.0933 244.809 19.24C243.689 18.36 242.436 17.3067 241.049 16.08C240.836 15.8933 240.649 15.6667 240.489 15.4C240.356 15.1333 240.289 14.8533 240.289 14.56C240.289 14.0267 240.476 13.5733 240.849 13.2C241.222 12.8267 241.676 12.64 242.209 12.64C242.476 12.64 242.716 12.6933 242.929 12.8C243.142 12.9067 243.356 13.04 243.569 13.2C245.196 14.64 246.569 15.7733 247.689 16.6C248.809 17.4267 249.809 18.0533 250.689 18.48C251.596 18.88 252.436 19.1467 253.209 19.28C254.009 19.3867 254.876 19.44 255.809 19.44H256.409C257.449 19.44 258.369 19.4 259.169 19.32C259.969 19.24 260.822 19 261.729 18.6C262.636 18.2 263.662 17.5867 264.809 16.76C265.982 15.9067 267.436 14.72 269.169 13.2C269.622 12.8267 270.076 12.64 270.529 12.64C271.062 12.64 271.516 12.8267 271.889 13.2C272.262 13.5733 272.449 14.0267 272.449 14.56C272.449 14.8533 272.369 15.1333 272.209 15.4C272.076 15.6667 271.902 15.8933 271.689 16.08Z" fill="white"/>
</svg>
