<svg width="44" height="26" viewBox="0 0 44 26" fill="none" xmlns="http://www.w3.org/2000/svg">
<path opacity="0.7" d="M11.9656 10H8L22 26V24L19.6578 15.8022C18.6765 12.3678 15.5374 10 11.9656 10Z" fill="#F2994A"/>
<path opacity="0.7" d="M32.0344 10H36L22 26V24L24.3422 15.8022C25.3235 12.3678 28.4626 10 32.0344 10Z" fill="#F2994A"/>
<path d="M36.1169 10H44C36.0382 15.2509 28.2176 18.8834 22 26V24L29.6071 13.3501C31.1088 11.2477 33.5333 10 36.1169 10Z" fill="#F2994A"/>
<path d="M7.24039 10H0C7.96176 15.2509 15.7824 18.8834 22 26V24L11.7959 12.0953C10.656 10.7654 8.99194 10 7.24039 10Z" fill="#F2994A"/>
<path d="M17.0982 6.40636C16.7209 6.26678 16.7209 5.73323 17.0982 5.59364L18.8846 4.93259C19.8334 4.5815 20.5815 3.83343 20.9326 2.88463L21.5936 1.09818C21.7332 0.720947 22.2668 0.720947 22.4064 1.09818L23.0674 2.88463C23.4185 3.83343 24.1666 4.5815 25.1154 4.93259L26.9018 5.59364C27.2791 5.73323 27.2791 6.26677 26.9018 6.40636L25.1154 7.06741C24.1666 7.4185 23.4185 8.16657 23.0674 9.11537L22.4064 10.9018C22.2668 11.2791 21.7332 11.2791 21.5936 10.9018L20.9326 9.11537C20.5815 8.16657 19.8334 7.4185 18.8846 7.06741L17.0982 6.40636Z" fill="white"/>
</svg>
