<svg width="16" height="16" viewBox="0 0 16 16" fill="none" xmlns="http://www.w3.org/2000/svg">
  <path
    d="M9.33366 1.33334V4.00001C9.33366 4.35363 9.47413 4.69277 9.72418 4.94282C9.97423 5.19287 10.3134 5.33334 10.667 5.33334H13.3337M8.00033 8.00001V12M8.00033 8.00001L10.0003 10M8.00033 8.00001L6.00033 10M10.0003 1.33334H4.00033C3.6467 1.33334 3.30756 1.47382 3.05752 1.72387C2.80747 1.97392 2.66699 2.31305 2.66699 2.66668V13.3333C2.66699 13.687 2.80747 14.0261 3.05752 14.2762C3.30756 14.5262 3.6467 14.6667 4.00033 14.6667H12.0003C12.3539 14.6667 12.6931 14.5262 12.9431 14.2762C13.1932 14.0261 13.3337 13.687 13.3337 13.3333V4.66668L10.0003 1.33334Z"
    stroke="currentColor" stroke-width="0.666667" stroke-linecap="round" stroke-linejoin="round" />
</svg>
