<svg width="16" height="16" viewBox="0 0 16 16" fill="none" xmlns="http://www.w3.org/2000/svg">
<path d="M8.00016 12.6667L5.3535 14.2534C5.14612 14.3779 4.90875 14.4438 4.66683 14.4438C4.4249 14.4438 4.18754 14.3779 3.98016 14.2534L1.98016 13.0534C1.78333 12.9351 1.62038 12.768 1.50709 12.5683C1.39379 12.3686 1.334 12.143 1.3335 11.9134V9.75335C1.334 9.52373 1.39379 9.29814 1.50709 9.09841C1.62038 8.89869 1.78333 8.73161 1.98016 8.61335L4.66683 7.00002M8.00016 12.6667V9.00002M8.00016 12.6667L10.6468 14.2534C10.8542 14.3779 11.0916 14.4438 11.3335 14.4438C11.5754 14.4438 11.8128 14.3779 12.0202 14.2534L14.0202 13.0534C14.217 12.9351 14.3799 12.768 14.4932 12.5683C14.6065 12.3686 14.6663 12.143 14.6668 11.9134V9.75335C14.6663 9.52373 14.6065 9.29814 14.4932 9.09841C14.3799 8.89869 14.217 8.73161 14.0202 8.61335L11.3335 7.00002M8.00016 9.00002L4.66683 7.00002M8.00016 9.00002L4.66683 11M8.00016 9.00002L11.3335 7.00002M8.00016 9.00002L11.3335 11M8.00016 9.00002V5.33335M4.66683 7.00002V4.08669C4.66733 3.85707 4.72713 3.63147 4.84042 3.43175C4.95372 3.23202 5.11667 3.06494 5.3135 2.94669L7.3135 1.74669C7.52087 1.6221 7.75824 1.55627 8.00016 1.55627C8.24209 1.55627 8.47945 1.6221 8.68683 1.74669L10.6868 2.94669C10.8837 3.06494 11.0466 3.23202 11.1599 3.43175C11.2732 3.63147 11.333 3.85707 11.3335 4.08669V7.00002M4.66683 11L1.50683 9.10002M4.66683 11L4.66683 14.4467M11.3335 11L14.4935 9.10002M11.3335 11V14.4467M8.00016 5.33335L4.84016 3.43335M8.00016 5.33335L11.1602 3.43335" stroke="currentColor" stroke-width="0.666667" stroke-linecap="round" stroke-linejoin="round"/>
</svg>