<svg width="16" height="16" viewBox="0 0 16 16" fill="none" xmlns="http://www.w3.org/2000/svg">
<path fill-rule="evenodd" clip-rule="evenodd" d="M4.94478 6.27158C5.07093 6.51723 4.97405 6.81862 4.7284 6.94477L3.63892 7.50423L7.5 9.29564L11.3611 7.50423L10.2716 6.94477C10.026 6.81862 9.92907 6.51723 10.0552 6.27158C10.1814 6.02593 10.4828 5.92906 10.7284 6.0552L12.7284 7.08223C12.8952 7.16785 13 7.33956 13 7.52701V12.5C13 12.6894 12.893 12.8625 12.7236 12.9472L7.72361 15.4472C7.58284 15.5176 7.41716 15.5176 7.27639 15.4472L2.27639 12.9472C2.107 12.8625 2 12.6894 2 12.5V7.52701C2 7.33956 2.10485 7.16785 2.2716 7.08223L4.2716 6.0552C4.51725 5.92906 4.81864 6.02593 4.94478 6.27158ZM12 8.31019L8 10.166V14.191L12 12.191V8.31019ZM7 14.191V10.166L3 8.31019V12.191L7 14.191Z" fill="currentColor"/>
<path d="M9.24088 5.38868C9.35164 5.22254 9.23254 5 9.03287 5L5.96713 5C5.76746 5 5.64836 5.22254 5.75912 5.38867L7.29199 7.68798C7.39094 7.83641 7.60906 7.83641 7.70801 7.68798L9.24088 5.38868Z" fill="black"/>
<path d="M11 1.5C8.43064 1.5 7.5 2.43064 7.5 5" stroke="currentColor" stroke-linecap="round"/>
</svg>