<svg width="15" height="15" viewBox="0 0 15 15" fill="none"
  xmlns="http://www.w3.org/2000/svg">
  <path d="M12 8H4C3.86739 8 3.74021 7.94732 3.64645 7.85355C3.55268 7.75979 3.5 7.63261 3.5 7.5C3.5 7.36739 3.55268 7.24021 3.64645 7.14645C3.74021 7.05268 3.86739 7 4 7H12C12.1326 7 12.2598 7.05268 12.3536 7.14645C12.4473 7.24021 12.5 7.36739 12.5 7.5C12.5 7.63261 12.4473 7.75979 12.3536 7.85355C12.2598 7.94732 12.1326 8 12 8ZM14.5 4H1.5C1.36739 4 1.24021 4.05268 1.14645 4.14645C1.05268 4.24021 1 4.36739 1 4.5C1 4.63261 1.05268 4.75979 1.14645 4.85355C1.24021 4.94732 1.36739 5 1.5 5H14.5C14.6326 5 14.7598 4.94732 14.8536 4.85355C14.9473 4.75979 15 4.63261 15 4.5C15 4.36739 14.9473 4.24021 14.8536 4.14645C14.7598 4.05268 14.6326 4 14.5 4ZM8 10H6.5C6.36739 10 6.24021 10.0527 6.14645 10.1464C6.05268 10.2402 6 10.3674 6 10.5C6 10.6326 6.05268 10.7598 6.14645 10.8536C6.24021 10.9473 6.36739 11 6.5 11H8C8.13261 11 8.25979 10.9473 8.35355 10.8536C8.44732 10.7598 8.5 10.6326 8.5 10.5C8.5 10.3674 8.44732 10.2402 8.35355 10.1464C8.25979 10.0527 8.13261 10 8 10ZM13.8538 9.64625C13.8073 9.59976 13.7522 9.56288 13.6915 9.53772C13.6308 9.51256 13.5657 9.49961 13.5 9.49961C13.4343 9.49961 13.3692 9.51256 13.3085 9.53772C13.2478 9.56288 13.1927 9.59976 13.1462 9.64625L12 10.7931L10.8538 9.64625C10.7599 9.55243 10.6327 9.49972 10.5 9.49972C10.3673 9.49972 10.2401 9.55243 10.1462 9.64625C10.0524 9.74007 9.99972 9.86732 9.99972 10C9.99972 10.1327 10.0524 10.2599 10.1462 10.3538L11.2931 11.5L10.1462 12.6462C10.0524 12.7401 9.99972 12.8673 9.99972 13C9.99972 13.1327 10.0524 13.2599 10.1462 13.3538C10.2401 13.4476 10.3673 13.5003 10.5 13.5003C10.6327 13.5003 10.7599 13.4476 10.8538 13.3538L12 12.2069L13.1462 13.3538C13.1927 13.4002 13.2479 13.4371 13.3086 13.4622C13.3692 13.4873 13.4343 13.5003 13.5 13.5003C13.5657 13.5003 13.6308 13.4873 13.6914 13.4622C13.7521 13.4371 13.8073 13.4002 13.8538 13.3538C13.9002 13.3073 13.9371 13.2521 13.9622 13.1914C13.9873 13.1308 14.0003 13.0657 14.0003 13C14.0003 12.9343 13.9873 12.8692 13.9622 12.8086C13.9371 12.7479 13.9002 12.6927 13.8538 12.6462L12.7069 11.5L13.8538 10.3538C13.9002 10.3073 13.9371 10.2522 13.9623 10.1915C13.9874 10.1308 14.0004 10.0657 14.0004 10C14.0004 9.93429 13.9874 9.86923 13.9623 9.80853C13.9371 9.74783 13.9002 9.69269 13.8538 9.64625Z" fill="currentColor"/>
</svg>
