<svg width="16" height="16" viewBox="0 0 16 16" fill="none" xmlns="http://www.w3.org/2000/svg">
  <path
    d="M9.33317 1.33333V4C9.33317 4.35362 9.47365 4.69276 9.72369 4.94281C9.97374 5.19286 10.3129 5.33333 10.6665 5.33333H13.3332M7.99984 12V8M7.99984 12L5.99984 10M7.99984 12L9.99984 10M9.99984 1.33333H3.99984C3.64622 1.33333 3.30708 1.47381 3.05703 1.72386C2.80698 1.9739 2.6665 2.31304 2.6665 2.66667V13.3333C2.6665 13.687 2.80698 14.0261 3.05703 14.2761C3.30708 14.5262 3.64622 14.6667 3.99984 14.6667H11.9998C12.3535 14.6667 12.6926 14.5262 12.9426 14.2761C13.1927 14.0261 13.3332 13.687 13.3332 13.3333V4.66667L9.99984 1.33333Z"
    stroke="currentColor" stroke-width="0.666667" stroke-linecap="round" stroke-linejoin="round" />
</svg>
