<svg width="16" height="16" viewBox="0 0 16 16" fill="none"
  xmlns="http://www.w3.org/2000/svg">
  <path fill-rule="evenodd" clip-rule="evenodd" d="M10.6213 5.14643C10.8166 4.95117 11.1331 4.95117 11.3284 5.14643L14.182 7.99999L11.3284 10.8535C11.1331 11.0488 10.8166 11.0488 10.6213 10.8535C10.426 10.6583 10.426 10.3417 10.6213 10.1464L12.2677 8.49999H7.97485C7.69871 8.49999 7.47485 8.27613 7.47485 7.99999C7.47485 7.72384 7.69871 7.49999 7.97485 7.49999H12.2677L10.6213 5.85354C10.426 5.65828 10.426 5.3417 10.6213 5.14643Z" fill="currentColor"/>
  <path d="M8.32845 14.0105C8.13319 14.2058 7.81661 14.2058 7.62135 14.0105L1.96449 8.35367C1.76923 8.15841 1.76923 7.84183 1.96449 7.64656L7.62135 1.98971C7.81661 1.79445 8.13319 1.79445 8.32845 1.98971L10.3387 3.99999H8.92452L7.9749 3.05037L3.02515 8.00012L7.9749 12.9499L8.92478 12H10.339L8.32845 14.0105Z" fill="currentColor"/>
</svg>
