<svg width="15" height="15" viewBox="0 0 15 15" fill="none"
  xmlns="http://www.w3.org/2000/svg">
  <path fill-rule="evenodd" clip-rule="evenodd" d="M7.49988 0.876953C3.84219 0.876953 0.877045 3.8421 0.877045 7.49978C0.877045 11.1574 3.84219 14.1226 7.49988 14.1226C11.1575 14.1226 14.1227 11.1574 14.1227 7.49978C14.1227 3.8421 11.1575 0.876953 7.49988 0.876953ZM1.82704 7.49978C1.82704 4.36677 4.36686 1.82695 7.49988 1.82695C10.6329 1.82695 13.1727 4.36677 13.1727 7.49978C13.1727 10.6328 10.6329 13.1726 7.49988 13.1726C4.36686 13.1726 1.82704 10.6328 1.82704 7.49978ZM7.5 4.00006C7.77614 4.00006 8 4.22392 8 4.50006V7.00006H10.5C10.7761 7.00006 11 7.22392 11 7.50006C11 7.7762 10.7761 8.00006 10.5 8.00006H8V10.5001C8 10.7762 7.77614 11.0001 7.5 11.0001C7.22386 11.0001 7 10.7762 7 10.5001V8.00006H4.5C4.22386 8.00006 4 7.7762 4 7.50006C4 7.22392 4.22386 7.00006 4.5 7.00006H7V4.50006C7 4.22392 7.22386 4.00006 7.5 4.00006Z" fill="currentColor"/>
</svg>
