<svg width="104" height="64" viewBox="0 0 104 64" fill="none" xmlns="http://www.w3.org/2000/svg">
  <rect x="8.5" y="0.5" width="95" height="15" rx="1.5" fill="white" stroke="#969696" />
  <rect x="32.5" y="24.5" width="71" height="7" rx="1.5" fill="white" stroke="#969696" />
  <rect x="56.5" y="40.5" width="47" height="7" rx="1.5" fill="#DB5139" fill-opacity="0.24" stroke="#DB5139" />
  <rect x="80.5" y="56.5" width="23" height="7" rx="1.5" fill="#E6E6FF" stroke="#3525E6" />
  <path d="M22 17V24C22 26.2091 23.7909 28 26 28H31" stroke="#969696" />
  <path
    d="M16.9588 12V3.27273H20.0696C20.7486 3.27273 21.3111 3.39631 21.7571 3.64347C22.2031 3.89062 22.5369 4.22869 22.7585 4.65767C22.9801 5.08381 23.0909 5.56392 23.0909 6.09801C23.0909 6.63494 22.9787 7.1179 22.7543 7.54688C22.5327 7.97301 22.1974 8.31108 21.7486 8.56108C21.3026 8.80824 20.7415 8.93182 20.0653 8.93182H17.9261V7.81534H19.946C20.375 7.81534 20.723 7.74148 20.9901 7.59375C21.2571 7.44318 21.4531 7.23864 21.5781 6.98011C21.7031 6.72159 21.7656 6.42756 21.7656 6.09801C21.7656 5.76847 21.7031 5.47585 21.5781 5.22017C21.4531 4.96449 21.2557 4.7642 20.9858 4.61932C20.7188 4.47443 20.3665 4.40199 19.929 4.40199H18.2756V12H16.9588ZM26.2865 3.27273V12H25.0123V3.27273H26.2865ZM30.3854 12.1449C29.9707 12.1449 29.5957 12.0682 29.2604 11.9148C28.9252 11.7585 28.6596 11.5327 28.4636 11.2372C28.2704 10.9418 28.1738 10.5795 28.1738 10.1506C28.1738 9.78125 28.2448 9.47727 28.3868 9.23864C28.5289 9 28.7207 8.81108 28.9621 8.67188C29.2036 8.53267 29.4735 8.42756 29.7718 8.35653C30.0701 8.28551 30.3741 8.23153 30.6837 8.1946C31.0758 8.14915 31.3939 8.11222 31.6383 8.08381C31.8826 8.05256 32.0601 8.00284 32.1709 7.93466C32.2817 7.86648 32.3371 7.75568 32.3371 7.60227V7.57244C32.3371 7.20028 32.232 6.91193 32.0218 6.70739C31.8144 6.50284 31.5047 6.40057 31.0928 6.40057C30.6638 6.40057 30.3258 6.49574 30.0786 6.68608C29.8343 6.87358 29.6653 7.08239 29.5715 7.3125L28.3741 7.03977C28.5161 6.64205 28.7235 6.32102 28.9962 6.0767C29.2718 5.82955 29.5886 5.65057 29.9465 5.53977C30.3045 5.42614 30.6809 5.36932 31.0758 5.36932C31.3371 5.36932 31.6141 5.40057 31.9067 5.46307C32.2022 5.52273 32.4778 5.63352 32.7334 5.79545C32.992 5.95739 33.2036 6.18892 33.3684 6.49006C33.5332 6.78835 33.6155 7.17614 33.6155 7.65341V12H32.3712V11.1051H32.3201C32.2377 11.2699 32.1141 11.4318 31.9493 11.5909C31.7846 11.75 31.5729 11.8821 31.3144 11.9872C31.0559 12.0923 30.7462 12.1449 30.3854 12.1449ZM30.6624 11.1222C31.0147 11.1222 31.3158 11.0526 31.5658 10.9134C31.8187 10.7741 32.0104 10.5923 32.1411 10.3679C32.2746 10.1406 32.3414 9.89773 32.3414 9.6392V8.79545C32.2959 8.84091 32.2079 8.88352 32.0772 8.9233C31.9493 8.96023 31.803 8.9929 31.6383 9.02131C31.4735 9.04687 31.313 9.07102 31.1567 9.09375C31.0005 9.11364 30.8698 9.13068 30.7647 9.14489C30.5175 9.17614 30.2917 9.22869 30.0871 9.30256C29.8854 9.37642 29.7235 9.48295 29.6013 9.62216C29.482 9.75852 29.4224 9.94034 29.4224 10.1676C29.4224 10.483 29.5388 10.7216 29.7718 10.8835C30.0047 11.0426 30.3016 11.1222 30.6624 11.1222ZM37.0668 8.11364V12H35.7926V5.45455H37.0156V6.51989H37.0966C37.2472 6.1733 37.483 5.89489 37.804 5.68466C38.1279 5.47443 38.5355 5.36932 39.027 5.36932C39.473 5.36932 39.8637 5.46307 40.1989 5.65057C40.5341 5.83523 40.794 6.1108 40.9787 6.47727C41.1634 6.84375 41.2557 7.29687 41.2557 7.83665V12H39.9815V7.99006C39.9815 7.51562 39.858 7.14489 39.6108 6.87784C39.3637 6.60795 39.0242 6.47301 38.5923 6.47301C38.2969 6.47301 38.0341 6.53693 37.804 6.66477C37.5767 6.79261 37.3963 6.98011 37.2628 7.22727C37.1321 7.47159 37.0668 7.76705 37.0668 8.11364Z"
    fill="#444C50" />
  <path
    d="M35 34L32.1132 39H37.8868L35 34ZM79 59.5H39V60.5H79V59.5ZM35.5 56V38.5H34.5V56H35.5ZM39 59.5C37.067 59.5 35.5 57.933 35.5 56H34.5C34.5 58.4853 36.5147 60.5 39 60.5V59.5Z"
    fill="#3525E6" />
  <path opacity="0.4"
    d="M13 19L10.1132 24H15.8868L13 19ZM79 59.5H17V60.5H79V59.5ZM13.5 56V23.5H12.5V56H13.5ZM17 59.5C15.067 59.5 13.5 57.933 13.5 56H12.5C12.5 58.4853 14.5147 60.5 17 60.5V59.5Z"
    fill="#3525E6" />
  <path fill-rule="evenodd" clip-rule="evenodd"
    d="M51.142 48.5561C51.5325 48.9466 52.1657 48.9466 52.5562 48.5561C52.9467 48.1656 52.9467 47.5324 52.5562 47.1419L49.7278 44.3135L52.5562 41.485C52.9467 41.0945 52.9467 40.4614 52.5562 40.0708C52.1657 39.6803 51.5325 39.6803 51.142 40.0708L48.3135 42.8993L45.4851 40.0708C45.0946 39.6803 44.4614 39.6803 44.0709 40.0708C43.6804 40.4614 43.6804 41.0945 44.0709 41.4851L46.8993 44.3135L44.0709 47.1419C43.6804 47.5324 43.6804 48.1656 44.0709 48.5561C44.4614 48.9466 45.0946 48.9466 45.4851 48.5561L48.3135 45.7277L51.142 48.5561Z"
    fill="#DB5139" />
</svg>