<!-- Radix icon -->
<svg width="15" height="15" viewBox="0 0 15 15" fill="none"
  xmlns="http://www.w3.org/2000/svg">
  <path fill-rule="evenodd" clip-rule="evenodd" d="M3.9498 2.9498L3.9498 4.49977C3.9498 4.74829 3.74833 4.94977 3.4998 4.94977C3.25128 4.94977 3.0498 4.74829 3.0498 4.49977V2.49982C3.0498 2.45225 3.05719 2.4064 3.07087 2.36336C3.12865 2.18154 3.29885 2.0498 3.49981 2.0498H11.4998C11.6551 2.0498 11.7921 2.1285 11.873 2.24821C11.9215 2.32003 11.9498 2.40661 11.9498 2.4998L11.9498 2.49982V4.49977C11.9498 4.74829 11.7483 4.94977 11.4998 4.94977C11.2513 4.94977 11.0498 4.74829 11.0498 4.49977V2.9498H8.04981V12.0498H9.25416C9.50269 12.0498 9.70416 12.2513 9.70416 12.4998C9.70416 12.7483 9.50269 12.9498 9.25416 12.9498H5.75416C5.50563 12.9498 5.30416 12.7483 5.30416 12.4998C5.30416 12.2513 5.50563 12.0498 5.75416 12.0498H6.94981V2.9498H3.9498Z" fill="black"/>
</svg>
