<svg width="15" height="15" viewBox="0 0 15 15" fill="none"
  xmlns="http://www.w3.org/2000/svg">
  <path fill-rule="evenodd" clip-rule="evenodd" d="M7.49999 2.99961C7.22385 2.99961 6.99999 3.22347 6.99999 3.49961C6.99999 3.77575 7.22385 3.99961 7.49999 3.99961H14.5C14.7761 3.99961 15 3.77575 15 3.49961C15 3.22347 14.7761 2.99961 14.5 2.99961H7.49999ZM11.5 5C11.2239 5 11 5.22386 11 5.5C11 5.77614 11.2239 6 11.5 6H14.5C14.7761 6 15 5.77614 15 5.5C15 5.22386 14.7761 5 14.5 5H11.5ZM11 7.5C11 7.22386 11.2239 7 11.5 7H14.5C14.7761 7 15 7.22386 15 7.5C15 7.77614 14.7761 8 14.5 8H11.5C11.2239 8 11 7.77614 11 7.5ZM11.5 9C11.2239 9 11 9.22386 11 9.5C11 9.77614 11.2239 10 11.5 10H14.5C14.7761 10 15 9.77614 15 9.5C15 9.22386 14.7761 9 14.5 9H11.5ZM11 11.5C11 11.2239 11.2239 11 11.5 11H14.5C14.7761 11 15 11.2239 15 11.5C15 11.7761 14.7761 12 14.5 12H11.5C11.2239 12 11 11.7761 11 11.5ZM2.5 9.24966L5 5.99966H0L2.5 9.24966Z" fill="currentColor"/>
</svg>
