<svg width="15" height="15" viewBox="0 0 15 15" fill="none"
  xmlns="http://www.w3.org/2000/svg">
  <path fill-rule="evenodd" clip-rule="evenodd" d="M7.49999 2.99961C7.22385 2.99961 6.99999 3.22347 6.99999 3.49961C6.99999 3.77575 7.22385 3.99961 7.49999 3.99961H14.5C14.7761 3.99961 15 3.77575 15 3.49961C15 3.22347 14.7761 2.99961 14.5 2.99961H7.49999ZM7.49998 4.99963C7.22384 4.99963 6.99998 5.22349 6.99998 5.49963C6.99998 5.77577 7.22384 5.99963 7.49998 5.99963H14.5C14.7761 5.99963 15 5.77577 15 5.49963C15 5.22349 14.7761 4.99963 14.5 4.99963H7.49998ZM7 7.49963C7 7.22349 7.22386 6.99963 7.5 6.99963H14.5C14.7761 6.99963 15 7.22349 15 7.49963C15 7.77577 14.7761 7.99963 14.5 7.99963H7.5C7.22386 7.99963 7 7.77577 7 7.49963ZM7.49998 8.99963C7.22384 8.99963 6.99998 9.22349 6.99998 9.49963C6.99998 9.77577 7.22384 9.99963 7.49998 9.99963H14.5C14.7761 9.99963 15 9.77577 15 9.49963C15 9.22349 14.7761 8.99963 14.5 8.99963H7.49998ZM6.99998 11.4996C6.99998 11.2235 7.22384 10.9996 7.49998 10.9996H14.5C14.7761 10.9996 15 11.2235 15 11.4996C15 11.7758 14.7761 11.9996 14.5 11.9996H7.49998C7.22384 11.9996 6.99998 11.7758 6.99998 11.4996ZM2.5 9.24966L5 5.99966H0L2.5 9.24966Z" fill="currentColor"/>
</svg>
