<svg width="15" height="15" viewBox="0 0 15 15" fill="none"
  xmlns="http://www.w3.org/2000/svg">
  <path fill-rule="evenodd" clip-rule="evenodd" d="M4.67086 3.14622C4.4756 3.34148 4.4756 3.65807 4.67086 3.85333L7.14573 6.3282C7.341 6.52347 7.65758 6.52347 7.85284 6.3282L10.3277 3.85333C10.523 3.65807 10.523 3.34148 10.3277 3.14622L7.85284 0.671349C7.65758 0.476087 7.341 0.476087 7.14573 0.671349L4.67086 3.14622ZM7.49929 5.26754L5.73152 3.49978L7.49929 1.73201L9.26705 3.49978L7.49929 5.26754ZM8.67086 7.14622C8.4756 7.34148 8.4756 7.65807 8.67086 7.85333L11.1457 10.3282C11.341 10.5235 11.6576 10.5235 11.8528 10.3282L14.3277 7.85333C14.523 7.65807 14.523 7.34148 14.3277 7.14622L11.8528 4.67135C11.6576 4.47609 11.341 4.47609 11.1457 4.67135L8.67086 7.14622ZM11.4993 9.26754L9.73152 7.49978L11.4993 5.73201L13.2671 7.49978L11.4993 9.26754ZM4.67086 11.8533C4.4756 11.6581 4.4756 11.3415 4.67086 11.1462L7.14573 8.67135C7.341 8.47609 7.65758 8.47609 7.85284 8.67135L10.3277 11.1462C10.523 11.3415 10.523 11.6581 10.3277 11.8533L7.85284 14.3282C7.65758 14.5235 7.341 14.5235 7.14573 14.3282L4.67086 11.8533ZM5.73152 11.4998L7.49929 13.2675L9.26705 11.4998L7.49929 9.73201L5.73152 11.4998ZM0.670861 7.14637C0.475599 7.34163 0.475599 7.65822 0.670861 7.85348L3.14573 10.3284C3.341 10.5236 3.65758 10.5236 3.85284 10.3284L6.32771 7.85348C6.52298 7.65822 6.52298 7.34163 6.32771 7.14637L3.85284 4.6715C3.65758 4.47623 3.341 4.47623 3.14573 4.6715L0.670861 7.14637ZM3.49929 9.26769L1.73152 7.49992L3.49929 5.73216L5.26705 7.49992L3.49929 9.26769Z" fill="currentColor"/>
</svg>
