<svg width="15" height="15" viewBox="0 0 15 15" fill="none"
  xmlns="http://www.w3.org/2000/svg">
  <path fill-rule="evenodd" clip-rule="evenodd" d="M4.67184 3.14769C4.47657 3.34295 4.47657 3.65953 4.67184 3.85479L7.14671 6.32967C7.34197 6.52493 7.65856 6.52493 7.85382 6.32967L10.3287 3.85479C10.524 3.65953 10.524 3.34295 10.3287 3.14769L7.85382 0.672814C7.65856 0.477552 7.34197 0.477552 7.14671 0.672814L4.67184 3.14769ZM0.671837 7.14645C0.476575 7.34171 0.476575 7.65829 0.671837 7.85355L3.14671 10.3284C3.34197 10.5237 3.65856 10.5237 3.85382 10.3284L6.32869 7.85355C6.52395 7.65829 6.52395 7.34171 6.32869 7.14645L3.85382 4.67157C3.65856 4.47631 3.34197 4.47631 3.14671 4.67157L0.671837 7.14645ZM4.67191 11.8511C4.47665 11.6558 4.47665 11.3393 4.67191 11.144L7.14679 8.66913C7.34205 8.47387 7.65863 8.47387 7.85389 8.66913L10.3288 11.144C10.524 11.3393 10.524 11.6558 10.3288 11.8511L7.85389 14.326C7.65863 14.5212 7.34205 14.5212 7.14679 14.326L4.67191 11.8511ZM8.67094 7.14596C8.47567 7.34122 8.47567 7.6578 8.67094 7.85306L11.1458 10.3279C11.3411 10.5232 11.6577 10.5232 11.8529 10.3279L14.3278 7.85306C14.5231 7.6578 14.5231 7.34122 14.3278 7.14596L11.8529 4.67108C11.6577 4.47582 11.3411 4.47582 11.1458 4.67108L8.67094 7.14596Z" fill="currentColor"/>
</svg>

