<svg width="16" height="16" viewBox="0 0 16 16" fill="none"
  xmlns="http://www.w3.org/2000/svg">
  <path d="M14.915 4.91375C14.7294 5.09992 14.5089 5.24756 14.266 5.34817C14.0232 5.44879 13.7629 5.50038 13.5 5.5C13.3391 5.49991 13.1788 5.48061 13.0225 5.4425L11.3581 8.53375C11.3769 8.55125 11.3956 8.56875 11.4137 8.58687C11.6782 8.85139 11.8632 9.18476 11.9477 9.54913C12.0322 9.91349 12.0128 10.2943 11.8918 10.6482C11.7707 11.0021 11.5528 11.3149 11.2629 11.5512C10.973 11.7875 10.6226 11.9378 10.2515 11.985C9.88048 12.0321 9.50364 11.9743 9.16381 11.818C8.82398 11.6618 8.53478 11.4133 8.32906 11.1009C8.12334 10.7886 8.00933 10.4248 8 10.0508C7.99066 9.67692 8.08637 9.30788 8.27625 8.98563L7.015 7.72437C6.70732 7.90516 6.35686 8.00032 6 8C5.83893 8.00012 5.67842 7.98103 5.52187 7.94312L3.8575 11.0331C3.87625 11.0506 3.89562 11.0681 3.91375 11.0863C4.19341 11.366 4.38385 11.7223 4.46098 12.1103C4.53811 12.4982 4.49848 12.9003 4.34709 13.2658C4.1957 13.6312 3.93936 13.9435 3.61047 14.1633C3.28158 14.383 2.89492 14.5003 2.49938 14.5003C2.10383 14.5003 1.71717 14.383 1.38828 14.1633C1.05939 13.9435 0.803048 13.6312 0.65166 13.2658C0.500271 12.9003 0.460638 12.4982 0.537771 12.1103C0.614904 11.7223 0.805341 11.366 1.085 11.0863C1.32834 10.843 1.63031 10.6667 1.96173 10.5743C2.29314 10.4819 2.64279 10.4765 2.97688 10.5588L4.64125 7.4675C4.6225 7.45 4.60375 7.4325 4.58563 7.41437C4.39986 7.22865 4.2525 7.00815 4.15196 6.76547C4.05142 6.52279 3.99968 6.26268 3.99968 6C3.99968 5.73732 4.05142 5.47721 4.15196 5.23453C4.2525 4.99185 4.39986 4.77135 4.58563 4.58563C4.92971 4.24057 5.38793 4.033 5.87423 4.00191C6.36054 3.97082 6.84146 4.11835 7.22668 4.41678C7.6119 4.71521 7.87492 5.14402 7.96633 5.62266C8.05774 6.10131 7.97126 6.59686 7.72312 7.01625L8.98438 8.2775C9.43502 8.01345 9.97069 7.93501 10.4781 8.05875L12.1425 4.9675C12.1237 4.95 12.1044 4.9325 12.0863 4.91437C11.9005 4.72865 11.7531 4.50815 11.6526 4.26547C11.552 4.02279 11.5003 3.76268 11.5003 3.5C11.5003 3.23732 11.552 2.97721 11.6526 2.73453C11.7531 2.49185 11.9005 2.27135 12.0863 2.08562C12.4614 1.71051 12.9701 1.49977 13.5006 1.49977C14.0311 1.49977 14.5399 1.71051 14.915 2.08562C15.2901 2.46074 15.5009 2.96951 15.5009 3.5C15.5009 4.03049 15.2901 4.53863 14.915 4.91375Z" fill="currentColor"/>
</svg>
